<mxfile host="Electron" agent="Mozilla/5.0 (X11; Linux x86_64) AppleWebKit/537.36 (KHTML, like Gecko) draw.io/26.1.1 Chrome/132.0.6834.210 Electron/34.3.3 Safari/537.36" version="26.1.1">
  <diagram name="第 1 页" id="ldVA6h04NMmyPdPTNpBr">
    <mxGraphModel dx="861" dy="529" grid="1" gridSize="10" guides="1" tooltips="1" connect="1" arrows="1" fold="1" page="1" pageScale="1" pageWidth="827" pageHeight="1169" math="0" shadow="0">
      <root>
        <mxCell id="0" />
        <mxCell id="1" parent="0" />
        <mxCell id="rzFYoZ7Hk9IuClNTf7IH-1" value="訊息流(MQTT wss)" style="rounded=1;whiteSpace=wrap;html=1;verticalAlign=top;" vertex="1" parent="1">
          <mxGeometry x="324" y="360" width="196" height="190" as="geometry" />
        </mxCell>
        <mxCell id="rzFYoZ7Hk9IuClNTf7IH-2" value="管理" style="rounded=1;whiteSpace=wrap;html=1;verticalAlign=top;" vertex="1" parent="1">
          <mxGeometry x="324" y="40" width="196" height="100" as="geometry" />
        </mxCell>
        <mxCell id="rzFYoZ7Hk9IuClNTf7IH-3" value="流程控管(funcs/apis)" style="rounded=1;whiteSpace=wrap;html=1;verticalAlign=top;" vertex="1" parent="1">
          <mxGeometry x="324" y="160" width="196" height="160" as="geometry" />
        </mxCell>
        <mxCell id="rzFYoZ7Hk9IuClNTf7IH-4" value="Journal Topic&amp;nbsp;" style="rounded=1;whiteSpace=wrap;html=1;" vertex="1" parent="1">
          <mxGeometry x="362" y="475" width="120" height="30" as="geometry" />
        </mxCell>
        <mxCell id="rzFYoZ7Hk9IuClNTf7IH-5" value="Auto Input" style="rounded=1;whiteSpace=wrap;html=1;" vertex="1" parent="1">
          <mxGeometry x="362" y="425" width="120" height="30" as="geometry" />
        </mxCell>
        <mxCell id="rzFYoZ7Hk9IuClNTf7IH-6" value="CmTCBEAI" style="rounded=1;whiteSpace=wrap;html=1;verticalAlign=top;" vertex="1" parent="1">
          <mxGeometry x="110" y="285" width="120" height="60" as="geometry" />
        </mxCell>
        <mxCell id="rzFYoZ7Hk9IuClNTf7IH-7" value="" style="rounded=1;whiteSpace=wrap;html=1;" vertex="1" parent="1">
          <mxGeometry x="600" y="165" width="180" height="310" as="geometry" />
        </mxCell>
        <mxCell id="rzFYoZ7Hk9IuClNTf7IH-8" value="NBT Call Any" style="rounded=1;whiteSpace=wrap;html=1;" vertex="1" parent="1">
          <mxGeometry x="365.37" y="220" width="113.25" height="30" as="geometry" />
        </mxCell>
        <mxCell id="rzFYoZ7Hk9IuClNTf7IH-9" value="NBT VFuncKey" style="rounded=1;whiteSpace=wrap;html=1;" vertex="1" parent="1">
          <mxGeometry x="362" y="385" width="120" height="30" as="geometry" />
        </mxCell>
        <mxCell id="rzFYoZ7Hk9IuClNTf7IH-10" value="NBT連動應用" style="rounded=1;whiteSpace=wrap;html=1;" vertex="1" parent="1">
          <mxGeometry x="630" y="220" width="120" height="35" as="geometry" />
        </mxCell>
        <mxCell id="rzFYoZ7Hk9IuClNTf7IH-11" value="NBT自動填值" style="rounded=1;whiteSpace=wrap;html=1;" vertex="1" parent="1">
          <mxGeometry x="630" y="260" width="120" height="35" as="geometry" />
        </mxCell>
        <mxCell id="rzFYoZ7Hk9IuClNTf7IH-12" value="交易 token" style="rounded=1;whiteSpace=wrap;html=1;" vertex="1" parent="1">
          <mxGeometry x="365.37" y="95" width="113.25" height="30" as="geometry" />
        </mxCell>
        <mxCell id="rzFYoZ7Hk9IuClNTf7IH-13" value="CHostMessage" style="rounded=1;whiteSpace=wrap;html=1;verticalAlign=top;" vertex="1" parent="1">
          <mxGeometry x="110" y="160" width="120" height="60" as="geometry" />
        </mxCell>
        <mxCell id="rzFYoZ7Hk9IuClNTf7IH-14" value="交易驗證(token ...)" style="rounded=1;whiteSpace=wrap;html=1;" vertex="1" parent="1">
          <mxGeometry x="365.37" y="190" width="113.25" height="30" as="geometry" />
        </mxCell>
        <mxCell id="rzFYoZ7Hk9IuClNTf7IH-15" value="使用者認證" style="rounded=1;whiteSpace=wrap;html=1;" vertex="1" parent="1">
          <mxGeometry x="365.37" y="65" width="113.25" height="30" as="geometry" />
        </mxCell>
        <mxCell id="rzFYoZ7Hk9IuClNTf7IH-16" value="J2SQLite" style="rounded=1;whiteSpace=wrap;html=1;" vertex="1" parent="1">
          <mxGeometry x="365.37" y="250" width="113.25" height="30" as="geometry" />
        </mxCell>
        <mxCell id="rzFYoZ7Hk9IuClNTf7IH-17" value="取交易token" style="rounded=1;whiteSpace=wrap;html=1;" vertex="1" parent="1">
          <mxGeometry x="630" y="297.5" width="120" height="35" as="geometry" />
        </mxCell>
      </root>
    </mxGraphModel>
  </diagram>
</mxfile>
